<?xml version="1.0" encoding="UTF-8"?>
<svg id="_レイヤー_1" data-name="レイヤー_1" xmlns="http://www.w3.org/2000/svg" xmlns:xlink="http://www.w3.org/1999/xlink" version="1.1" viewBox="0 0 512 512">
  <!-- Generator: Adobe Illustrator 30.3.0, SVG Export Plug-In . SVG Version: 2.1.3 Build 182)  -->
  <defs>
    <style>
      .st0 {
        fill: url(#_名称未設定グラデーション_3);
      }

      .st1 {
        fill: url(#_名称未設定グラデーション_2);
      }

      .st2 {
        fill: url(#_名称未設定グラデーション);
      }
    </style>
    <linearGradient id="_名称未設定グラデーション" data-name="名称未設定グラデーション" x1="96" y1="450" x2="416" y2="66" gradientTransform="translate(0 514) scale(1 -1)" gradientUnits="userSpaceOnUse">
      <stop offset="0" stop-color="#24282f"/>
      <stop offset="1" stop-color="#111317"/>
    </linearGradient>
    <linearGradient id="_名称未設定グラデーション_2" data-name="名称未設定グラデーション 2" x1="61.08" y1="381.22" x2="379.7" y2="80.8" gradientTransform="translate(0 514) scale(1 -1)" gradientUnits="userSpaceOnUse">
      <stop offset="0" stop-color="#9ff7ff"/>
      <stop offset="1" stop-color="#21b6ff"/>
    </linearGradient>
    <linearGradient id="_名称未設定グラデーション_3" data-name="名称未設定グラデーション 3" x1="176.31" y1="88.93" x2="442.58" y2="377.96" gradientTransform="translate(0 514) scale(1 -1)" gradientUnits="userSpaceOnUse">
      <stop offset="0" stop-color="#ff7ab6"/>
      <stop offset="1" stop-color="#ffd166"/>
    </linearGradient>
  </defs>
  <rect class="st2" x="48" y="48" width="416" height="416" rx="88" ry="88"/>
  <path class="st1" d="M109.09,114h170.69v61.45h-102.41v54.62h93.31v59.17h-93.31v113.79h-68.28V114Z"/>
  <path class="st0" d="M326.43,250.55c50.07,0,86.48,30.72,86.48,75.1,0,51.21-42.1,85.34-104.69,85.34-46.66,0-81.93-17.07-103.55-47.79l44.38-36.41c13.66,19.34,33,29.59,58.03,29.59,22.76,0,36.41-10.24,36.41-26.17,0-17.07-14.79-25.03-44.38-31.86l-28.45-6.83c-40.97-9.1-61.45-30.72-61.45-64.86,0-43.24,37.55-73.97,93.31-73.97,39.83,0,70.55,13.66,93.31,39.83l-40.97,38.69c-13.66-14.79-30.72-22.76-51.21-22.76-18.21,0-29.59,6.83-29.59,19.34,0,11.38,10.24,18.21,31.86,22.76h20.48Z"/>
</svg>